<svg width="48" height="48" viewBox="0 0 48 48" fill="none" xmlns="http://www.w3.org/2000/svg">
<rect width="48" height="48" fill="#323238"/>
<path d="M17.709 19.8V36.002H12.314V19.8H17.709ZM18.052 14.798C18.053 14.827 18.054 14.861 18.054 14.896C18.054 15.645 17.736 16.319 17.228 16.791L17.226 16.792C16.681 17.29 15.952 17.595 15.151 17.595C15.102 17.595 15.052 17.594 15.003 17.592H15.01H14.977C14.936 17.594 14.888 17.595 14.84 17.595C14.056 17.595 13.344 17.289 12.815 16.791L12.816 16.792C12.312 16.304 12 15.622 12 14.867C12 14.843 12 14.819 12.001 14.794V14.798C12 14.777 12 14.753 12 14.729C12 13.967 12.324 13.281 12.841 12.8L12.843 12.799C13.387 12.304 14.114 12 14.911 12C14.957 12 15.002 12.001 15.048 12.003H15.042C15.085 12.001 15.134 12 15.185 12C15.97 12 16.685 12.303 17.219 12.798L17.217 12.796C17.732 13.293 18.052 13.989 18.052 14.76V14.802V14.8V14.798ZM37.114 26.718V36.002H31.736V27.337C31.741 27.258 31.743 27.166 31.743 27.074C31.743 26.178 31.494 25.341 31.061 24.627L31.073 24.648C30.646 24.052 29.956 23.669 29.177 23.669C29.117 23.669 29.057 23.671 28.997 23.676H29.005C28.978 23.675 28.947 23.674 28.916 23.674C28.296 23.674 27.726 23.887 27.275 24.244L27.281 24.24C26.828 24.607 26.473 25.076 26.249 25.615L26.241 25.638C26.125 25.993 26.059 26.401 26.059 26.825C26.059 26.873 26.06 26.921 26.062 26.969V26.962V36.004H20.684C20.706 31.6553 20.717 28.1293 20.717 25.426C20.717 22.7227 20.7117 21.1097 20.701 20.587L20.685 19.802H26.063V22.156H26.03C26.244 21.811 26.465 21.512 26.708 21.232L26.7 21.241C26.981 20.932 27.283 20.653 27.608 20.403L27.624 20.391C28.028 20.08 28.502 19.836 29.016 19.687L29.046 19.68C29.584 19.519 30.203 19.426 30.843 19.426H30.922H30.918C30.989 19.423 31.072 19.421 31.155 19.421C32.836 19.421 34.35 20.135 35.411 21.277L35.414 21.281C36.5487 22.5183 37.116 24.3303 37.116 26.717L37.114 26.718Z" fill="white"/>
</svg>
